<svg xmlns="http://www.w3.org/2000/svg" width="813" height="797">
  <!-- Background: Bauhaus Yellow -->
  <path fill="#F1C40F" d="M0 0h813v797H0z"/>

  <!-- Ship body: Tech Blue -->
  <path fill="#1E40AF" d="M395 81h22v48l19.922-.21q6.276-.048 12.55-.083c6.63-.036 13.26-.078 19.889-.16 5.35-.065 10.698-.1 16.048-.116q3.05-.017 6.099-.065c11.605-.179 20.634-.174 30.492 6.634l3.262 2.238c2.605 2.228 5.194 4.465 7.738 6.762l2.23 1.98c35.287 33.23 56.211 89.896 57.977 137.511.12 4.712.127 9.421.106 14.134l-.006 2.518c-.188 50.943-18.382 104.227-54.565 141.162L537 443l-2.57-2.895c-24.06-26.693-54.996-42.33-90.492-47.855l-2.249-.35c-8.235-1.157-16.318-1.408-24.689-1.9v96c23.58-.12 23.58-.12 47.158-.258 9.627-.06 19.254-.118 28.881-.164q10.521-.05 21.042-.12 5.56-.04 11.12-.061c29.83-.115 58.175-.617 81.799-21.397.737-.643 1.475-1.286 2.234-1.95C638.39 434.857 640.682 391.89 642 355h61v32h-26l2 8q.66 3.75 1.219 7.516l.313 2.108q.325 2.204.645 4.407.476 3.259.968 6.516c2.561 17.295 4.214 34.42 4.17 51.917-.003 2.668.021 5.334.046 8 .056 14.992-1.744 29.437-5.986 43.849l-.76 2.611C666.055 566.636 636.345 603.935 598 630l-2.011 1.367c-23.186 15.547-48.996 25.674-75.677 33.508l-3.002.9c-4.31 1.25-8.426 2.332-12.904 2.733-5.55.59-9.606 1.292-13.238 5.73-3.156 4.74-5.788 9.692-8.3 14.797l-1.464 2.97a99 99 0 0 0-2.632 6.152c-1.334 3.087-2.475 5.381-4.772 7.843-4.485 1.472-8.693 1.363-13.375 1.188l-3.676-.006A278 278 0 0 1 448 707c.597-4.205 2.047-7.22 4.16-10.887l1.904-3.342 1.998-3.458q1.963-3.409 3.91-6.825l1.759-3.045c1.423-2.28 1.423-2.28 1.269-4.443l-2.58.275q-4.815.51-9.633 1.007-2.07.215-4.14.436c-8.233.88-16.36 1.518-24.647 1.282l-.81 2.155c-1.226 2.931-2.656 5.604-4.23 8.365l-1.584 2.792-2.001 3.5L407 706h-26c4.699-9.563 9.476-18.886 15-28l-3.96.035c-11.722.07-23.346-.235-35.04-1.035l-1.022 1.8q-2.331 4.101-4.666 8.2l-1.607 2.832a383 383 0 0 1-3.22 5.541c-1.507 2.55-1.507 2.55-2.527 5.082-1.11 2.392-1.921 3.858-3.958 5.545-4.473.977-8.762.755-13.312.5l-3.69-.11A381 381 0 0 1 314 706c5.852-11.084 11.884-22.06 18-33l-3.762-.344c-5.776-.642-11.385-1.882-17.05-3.156l-3.1-.684c-4.042-.894-8.076-1.795-12.088-2.816-11.539 19.978-11.539 19.978-23 40h-25c2.249-6.746 2.249-6.746 3.96-9.75l1.164-2.062 1.251-2.188 2.672-4.75 1.435-2.547A1778 1778 0 0 0 266.625 670l1.615-2.914 1.487-2.711 1.33-2.414c1.087-1.899 1.087-1.899.943-3.961l-1.83-.747c-22.16-9.05-22.16-9.05-32.17-13.253l-.637 2.316c-1.906 5.15-4.533 9.816-7.175 14.621l-1.733 3.175c-5.579 10.187-11.195 20.369-17.085 30.38-1.422 2.475-1.422 2.475-2.386 5.127-1.09 2.627-1.95 4.385-3.984 6.381-4.445 1.25-8.722 1.169-13.312 1.063l-3.69.021c-3.002.012-5.997-.018-8.998-.084 1.263-4.071 2.773-7.718 4.8-11.465.839-1.553.839-1.553 1.693-3.139.6-1.1 1.2-2.2 1.82-3.333l1.885-3.479c4.112-7.569 8.306-15.09 12.552-22.584l1.603-2.83q3.837-6.763 7.717-13.498l2.805-4.922 1.32-2.258c1.013-1.789 1.92-3.637 2.805-5.492-1.102-3.306-1.526-3.634-4.29-5.46l-2.08-1.41c-.745-.496-1.489-.993-2.255-1.505C192.54 614.055 177.495 600.19 165 584l-1.312-1.687c-26.106-33.754-40.903-74.484-40.938-117.188l-.002-2.27c.034-24.284 1.501-52.603 9.252-75.855l-2.37.016q-5.284.029-10.567.046l-3.733.026-3.545.01-3.285.016C106 387 106 387 105 386v-31h65l.688 16.438c1.729 33.716 8.523 66.96 33.312 91.562 19.923 17.81 43.726 22.083 69.55 22.205l3.965.03q5.33.04 10.659.068c3.726.022 7.452.05 11.178.076q10.56.074 21.121.138 14.288.091 28.575.191c14.984.103 29.968.197 44.952.292v-94c-21.122 2.968-21.122 2.968-41.875 7.25l-3.753.906c-3.796.927-7.585 1.88-11.372 2.844l-3.568.906c-36.448 9.375-72.102 22.28-107.182 35.84l-2.4.927q-5.717 2.206-11.417 4.454l-4.066 1.584-3.59 1.415C202 449 202 449 200 448l1.512-1.59C235.308 409.944 257.635 364.358 264 315l.402-3.05c5.9-55.848-13.05-113.101-47.796-156.699C209.296 146.276 201.3 138.058 193 130l1-2 201 1z"/>

  <!-- Wave details: Accent Violet -->
  <path fill="#7C3AED" d="M564 540c1.933-.37 1.933-.37 4.34-.36l2.763-.013 3.038.032h3.193c3.496.001 6.99.025 10.486.048q3.628.009 7.256.013c6.375.011 12.75.04 19.126.074 6.502.03 13.003.044 19.505.06q19.146.049 38.293.146-.688 2.125-1.383 4.248l-.778 2.39c-1.296 3.648-3.01 7.018-4.839 10.424l-1.174 2.196C648.083 588.044 624.966 611.671 598 630l-2.011 1.367c-28.36 19.018-60.603 29.823-93.43 38.324l-2.932.76C497 671 497 671 493 671c1.423-3.752 3.118-7.237 5.02-10.77l1.828-3.404 1.964-3.639 2.037-3.786a8407 8407 0 0 1 14.298-26.446 4975 4975 0 0 0 10.233-18.966c5.643-10.504 11.342-20.97 17.162-31.376 1.786-3.2 3.561-6.407 5.337-9.613l5.132-9.266 2.864-5.168 1.68-3.033A94 94 0 0 1 564 540M139 540h131l-8 15a4293 4293 0 0 0-4.367 8.27c-14.973 28.39-14.973 28.39-22.279 41.327-2.023 3.59-4.033 7.186-6.044 10.782Q224.659 623.692 220 632c-3.144-1.172-5.81-2.386-8.496-4.398l-1.921-1.434-2.02-1.543-2.124-1.611C190.416 611.507 176.6 599.029 165 584l-1.312-1.687c-5.316-6.872-10.226-13.867-14.5-21.438l-1.02-1.805c-3.404-6.221-6.18-12.595-9.168-19.07"/>

  <!-- Sun circle: Bauhaus Red -->
  <path fill="#E63946" d="m655 155 2.793 1.438C669.586 163.204 676.278 173.056 680 186c2.418 12.428.436 24.328-6.312 35.094-7.39 10.442-17.244 16.954-29.688 19.906-15.774 1.685-27.696-1.757-40.09-11.672-8.246-7.407-13.46-18.126-14.148-29.148-.34-13.205 2.288-22.442 10.238-33.18l1.813-2.687C615.006 150.365 637.947 146.089 655 155"/>

  <!-- Additional wave patterns: Accent Violet -->
  <path fill="#7C3AED" d="M434.877 539.886q2.595 0 5.19.016l2.753.005c2.914.005 5.828.018 8.743.03q2.954.009 5.912.014 7.262.017 14.525.049c-3.622 7.4-7.41 14.636-11.562 21.75-6.12 10.602-11.965 21.341-17.758 32.125a6664 6664 0 0 1-5.086 9.441 7715 7715 0 0 0-14.461 26.918c-6.58 12.316-13.19 24.61-20.025 36.787-2.046 3.654-4.076 7.317-6.108 10.979-13.502.247-26.616-.15-40-2 9.388-19.032 19.137-37.875 29.532-56.377 3.095-5.529 6.155-11.076 9.218-16.623l1.037-1.877A2308 2308 0 0 0 411.25 574.5a1030 1030 0 0 1 13.563-24.562l1.545-2.708c4.151-7.216 4.151-7.216 8.52-7.344M518.375 539.375q2.85.075 5.7.137c4.644.11 9.283.282 13.925.488-2.061 5.335-4.664 10.312-7.312 15.375l-1.615 3.092c-4.15 7.894-8.5 15.659-12.927 23.4-4.595 8.071-8.983 16.242-13.333 24.446-4.949 9.326-9.937 18.623-15.102 27.832a1520 1520 0 0 0-6.734 12.18l-2.172 3.954q-1.622 2.952-3.239 5.907a2908 2908 0 0 1-3.027 5.517l-1.775 3.24c-5.038 8.73-5.038 8.73-7.955 10.04l-2.372.322-2.664.39L455 676l-2.71.33c-2.762.307-5.522.559-8.29.795l-2.79.262c-6.085.54-12.102.717-18.21.613 1.305-4.234 2.922-8.003 5.02-11.902l1.828-3.411 1.964-3.625 2.035-3.776c4.683-8.671 9.49-17.268 14.37-25.83 4.488-7.886 8.82-15.852 13.126-23.84a1514 1514 0 0 1 10.63-19.38q4.018-7.21 7.992-14.443l2.14-3.89q1.59-2.892 3.177-5.785l1.01-1.843.99-1.812c.969-1.748 1.966-3.48 2.964-5.212 1.805-3.15 1.805-3.15 2.856-6.327 4.281-10.656 15.578-7.992 25.273-7.549M363 540h41c-1.65 4.125-3.485 7.968-5.57 11.871l-1.07 2.019a4243 4243 0 0 1-3.485 6.548l-2.436 4.584q-3.116 5.862-6.238 11.722-2.245 4.218-4.486 8.438c-6.693 12.596-13.42 25.173-20.272 37.683-3.915 7.15-7.776 14.328-11.63 21.51-5.16 9.607-10.406 19.156-15.813 28.625-7.444-.56-14.593-1.82-21.875-3.437l-3.086-.659c-8.183-1.792-8.183-1.792-12.039-3.904 1.35-3.514 2.882-6.844 4.617-10.184l1.57-3.025 1.688-3.229 1.76-3.375c4.657-8.9 9.436-17.727 14.271-26.53a1703 1703 0 0 0 8.257-15.28 1346 1346 0 0 1 16.984-30.783C351.27 561.82 357.126 550.91 363 540M295 540h43c-9.125 18.25-9.125 18.25-13.625 26.375l-3.105 5.652-1.615 2.941c-2.3 4.214-4.564 8.446-6.83 12.677a1357 1357 0 0 1-17.269 31.28 625 625 0 0 0-10.51 19.328C281.328 645.338 277.44 652.339 273 659l-1.51-.673a4936 4936 0 0 0-20.553-9.077l-3.49-1.535L239 644c4.994-10.418 10.461-20.536 16.1-30.618 6.5-11.625 12.837-23.333 19.127-35.073q3.737-6.973 7.488-13.938l3.58-6.658 1.646-3.06 1.428-2.657c2.185-4.013 4.412-8.002 6.631-11.996"/>
</svg>
